<?xml version="1.0" standalone="no"?>
<!DOCTYPE svg PUBLIC "-//W3C//DTD SVG 20010904//EN"
 "http://www.w3.org/TR/2001/REC-SVG-20010904/DTD/svg10.dtd">
<svg version="1.0" xmlns="http://www.w3.org/2000/svg"
 width="664.000000pt" height="664.000000pt" viewBox="0 0 664.000000 664.000000"
 preserveAspectRatio="xMidYMid meet">
<metadata>
Created by potrace 1.11, written by Peter Selinger 2001-2013
</metadata>
<g transform="translate(0.000000,664.000000) scale(0.100000,-0.100000)"
fill="#000000" stroke="none">
<path d="M3080 6584 c-90 -12 -110 -15 -170 -29 -14 -3 -37 -7 -51 -10 -58
-11 -305 -93 -374 -124 -74 -34 -237 -114 -270 -133 -102 -58 -304 -200 -313
-220 -2 -5 -8 -8 -13 -8 -24 0 -185 -155 -208 -200 -42 -85 -13 -168 103 -289
121 -126 213 -166 361 -158 137 7 247 48 535 199 96 50 229 95 330 112 14 2
36 7 50 10 128 31 532 38 695 11 72 -12 79 -13 151 -39 39 -14 84 -28 100 -32
44 -10 297 -13 346 -4 24 4 61 11 83 14 75 10 180 41 203 59 17 13 15 27 -3
27 -8 0 -15 4 -15 8 0 5 -22 19 -50 32 -27 13 -50 27 -50 31 0 16 -291 149
-410 187 -153 49 -258 81 -285 85 -11 2 -31 7 -45 10 -64 16 -267 31 -415 30
-113 0 -275 -10 -295 -17 -8 -3 -49 -12 -90 -20 -72 -14 -182 -43 -245 -65
-16 -6 -73 -25 -125 -42 -115 -37 -454 -202 -565 -275 -14 -9 -25 -14 -25 -11
0 9 239 166 300 197 32 16 61 34 65 40 14 23 284 147 358 165 10 2 55 15 101
29 82 25 104 29 241 42 39 3 86 8 105 10 249 27 395 22 589 -22 64 -14 127
-28 141 -30 30 -5 172 -51 215 -69 17 -7 55 -23 85 -35 124 -50 390 -193 443
-238 27 -23 30 -9 11 54 -82 285 -271 448 -689 597 -111 40 -339 108 -352 106
-4 -1 -10 -1 -13 1 -73 28 -375 36 -540 14z"/>
<path d="M4672 5778 c-19 -19 -15 -24 40 -58 52 -32 167 -121 211 -163 13 -12
36 -33 52 -47 69 -60 -44 80 -124 155 -30 27 -62 57 -70 65 -25 24 -78 60 -88
60 -5 0 -14 -5 -21 -12z"/>
<path d="M5273 5588 c-18 -5 -33 -13 -33 -18 0 -5 -8 -11 -18 -15 -42 -13
-145 -193 -169 -295 -12 -48 -9 -142 6 -200 39 -144 95 -223 322 -449 151
-151 213 -238 298 -416 86 -181 128 -294 170 -458 37 -143 43 -179 47 -307 3
-109 5 -128 29 -220 37 -141 128 -339 193 -420 50 -62 56 -64 65 -27 4 18 9
37 11 42 1 6 6 28 11 50 4 22 11 47 16 57 5 9 12 40 15 70 7 56 11 83 14 83 1
0 3 25 5 55 3 30 7 75 9 100 6 53 6 302 1 345 -2 17 -6 61 -9 99 -3 39 -8 77
-11 85 -2 9 -6 30 -9 46 -6 34 -35 152 -44 175 -3 8 -6 20 -8 27 -5 26 -57
179 -64 188 -4 6 -17 39 -30 75 -33 93 -96 216 -118 232 -10 7 -40 43 -65 80
-25 37 -51 73 -57 80 -6 7 -23 30 -38 50 -114 156 -223 273 -470 508 -29 27
-51 50 -48 50 6 0 106 -77 191 -145 84 -69 309 -297 361 -366 92 -124 144
-197 144 -203 0 -4 15 -28 33 -54 78 -110 209 -419 234 -547 9 -50 8 -45 16
-80 11 -48 16 -73 23 -134 3 -31 8 -59 10 -63 5 -8 5 -313 0 -378 -2 -25 -7
-72 -11 -105 -4 -33 -9 -73 -10 -90 -1 -16 -5 -41 -8 -55 -4 -14 -9 -42 -12
-64 -3 -21 -7 -41 -10 -45 -2 -4 -6 -18 -9 -32 -2 -13 -9 -44 -16 -69 -6 -25
-13 -58 -16 -73 l-5 -29 59 42 c118 83 197 171 251 276 33 66 63 144 55 144
-2 0 0 8 5 18 8 15 15 45 27 122 25 157 25 698 -1 739 -2 4 -6 26 -10 51 -22
147 -151 446 -267 619 -35 52 -67 102 -73 110 -5 8 -14 20 -20 27 -5 6 -26 31
-45 55 -174 215 -358 381 -590 532 -181 117 -253 145 -327 125z"/>
<path d="M1562 5445 c-71 -28 -180 -83 -200 -102 -7 -7 -17 -13 -22 -13 -5 0
-16 -8 -26 -17 -13 -13 -36 -19 -83 -20 -103 -3 -184 -14 -212 -29 -15 -7 -29
-11 -32 -8 -3 3 -13 1 -24 -4 -10 -5 -40 -19 -68 -32 -27 -12 -75 -38 -105
-58 -95 -63 -277 -253 -393 -413 -141 -195 -215 -327 -273 -485 -20 -54 -37
-106 -39 -114 -2 -8 -11 -46 -20 -85 -23 -96 -23 -96 -41 -225 -23 -167 -22
-356 1 -574 6 -54 32 -199 49 -271 8 -35 41 -141 63 -200 14 -38 26 -74 27
-80 9 -36 68 -169 90 -204 49 -76 81 -99 143 -105 77 -6 265 73 348 146 46 40
108 140 126 200 21 72 28 223 15 318 -3 25 -8 64 -11 88 -3 23 -15 91 -26 150
-25 130 -26 287 -2 417 4 22 7 47 8 55 1 8 7 40 13 70 7 30 14 64 17 75 11 52
50 179 82 270 55 156 123 282 210 390 29 36 103 244 117 330 2 11 7 36 11 55
17 90 21 132 18 205 -3 65 0 81 14 95 30 27 174 126 236 160 31 17 57 34 57
36 0 5 4 7 -68 -21z m-298 -217 c-62 -53 -291 -284 -322 -323 -58 -77 -102
-139 -102 -146 0 -4 -6 -14 -14 -22 -19 -19 -96 -140 -129 -202 -25 -47 -123
-298 -154 -395 -53 -166 -84 -311 -100 -470 -9 -89 -9 -494 0 -530 5 -22 16
-91 33 -219 3 -19 13 -75 24 -125 11 -49 18 -91 16 -93 -5 -5 -43 119 -71 233
-25 101 -44 197 -51 269 -2 22 -7 63 -11 90 -9 52 -8 415 0 475 10 74 19 125
22 131 2 3 9 32 14 65 29 166 63 268 148 444 47 96 169 303 207 352 12 14 31
39 43 55 46 59 59 76 98 120 72 83 179 187 245 238 36 27 67 52 70 55 12 15
56 40 69 40 7 0 -8 -19 -35 -42z"/>
<path d="M6164 2693 c-3 -16 -17 -56 -30 -90 -13 -34 -24 -64 -24 -68 0 -9
-37 -93 -61 -136 -34 -65 -20 -56 26 16 48 75 113 204 118 233 2 9 8 27 15 38
13 24 7 34 -19 34 -12 0 -21 -10 -25 -27z"/>
<path d="M643 2283 c3 -5 8 -52 11 -106 4 -54 9 -104 11 -110 3 -7 7 -23 9
-37 25 -122 39 -146 70 -121 14 12 14 14 -20 106 -4 11 -8 23 -9 28 -2 4 -3 8
-5 10 -1 1 -3 9 -5 17 -1 8 -11 44 -20 80 -22 82 -23 90 -24 118 -1 12 -6 22
-12 22 -5 0 -8 -3 -6 -7z"/>
<path d="M5761 2191 c-180 -46 -298 -176 -465 -511 -89 -179 -148 -260 -282
-391 -126 -124 -132 -129 -144 -129 -5 0 -10 -4 -10 -8 0 -12 -164 -133 -269
-199 -102 -65 -185 -105 -263 -128 -172 -49 -416 -240 -531 -413 l-42 -63
-124 2 c-110 2 -184 9 -276 24 -16 3 -6 -4 24 -15 30 -11 75 -23 100 -26 25
-3 55 -8 66 -11 11 -2 59 -7 108 -10 70 -5 91 -3 105 10 15 13 70 24 162 32
14 1 34 5 45 8 11 3 38 8 60 11 97 14 125 19 205 37 100 24 266 79 359 121 94
42 212 100 241 119 14 9 59 38 100 64 99 64 288 217 373 302 69 69 169 201
277 362 59 88 260 474 260 499 0 6 5 12 10 12 12 0 13 -13 3 -24 -4 -3 -8 -12
-9 -19 -5 -23 -36 -102 -43 -112 -5 -5 -14 -28 -21 -50 -7 -22 -16 -45 -21
-51 -5 -6 -6 -14 -2 -17 3 -4 1 -7 -5 -7 -7 0 -11 -3 -10 -7 2 -11 -35 -87
-44 -91 -5 -2 -8 -8 -8 -14 0 -6 -16 -42 -35 -79 -19 -38 -35 -76 -35 -84 0
-8 -4 -15 -10 -15 -5 0 -10 -9 -10 -20 0 -11 -3 -20 -7 -20 -5 0 -19 -17 -33
-38 -85 -127 -147 -206 -207 -261 -37 -35 -106 -101 -153 -145 -84 -81 -201
-173 -250 -198 -14 -7 -47 -27 -75 -44 -58 -36 -178 -93 -250 -118 -27 -10
-59 -22 -70 -26 -31 -12 -59 -23 -65 -24 -3 -1 -9 -4 -15 -8 -13 -8 -288 -77
-334 -84 -20 -3 -49 -7 -66 -10 -50 -9 -197 -20 -248 -20 -53 1 -56 -2 -27
-27 163 -139 385 -203 600 -173 19 3 52 7 74 10 21 3 46 8 55 10 9 3 27 7 41
10 58 10 256 68 320 93 8 4 17 7 20 8 30 7 88 30 98 38 6 5 12 7 12 3 0 -10
189 88 260 135 188 124 352 282 511 494 41 55 173 263 175 275 0 3 19 42 42
87 68 133 164 392 172 465 0 4 7 26 15 49 29 80 42 214 26 261 -23 69 -74 104
-192 133 -77 19 -221 27 -268 16z m111 -266 c-2 -14 -8 -25 -13 -25 -12 0 -11
7 1 31 14 26 18 24 12 -6z"/>
<path d="M750 1904 c0 -3 10 -25 21 -48 12 -22 25 -49 30 -58 5 -10 14 -27 19
-38 6 -11 14 -28 18 -37 33 -68 85 -166 127 -238 27 -47 101 -154 114 -165 4
-3 33 -41 66 -85 66 -87 257 -284 320 -331 22 -16 47 -35 55 -43 8 -8 71 -51
140 -96 133 -86 279 -164 370 -197 30 -11 69 -26 85 -33 27 -12 113 -38 215
-66 65 -18 117 -29 160 -35 40 -5 242 -33 280 -39 14 -2 57 -7 95 -11 119 -11
116 -22 -5 -18 -164 4 -233 10 -375 29 -59 9 -294 69 -380 97 -33 11 -64 21
-70 23 -42 10 -197 83 -290 137 -80 46 -254 161 -283 186 -10 9 -43 37 -73 62
-75 62 -234 224 -292 295 -73 90 -189 268 -244 375 -51 99 -103 217 -107 244
-1 8 -5 19 -9 22 -4 4 -7 18 -7 31 0 46 -20 21 -46 -59 -40 -121 -44 -288 -9
-414 26 -96 118 -291 168 -359 4 -5 22 -32 39 -60 18 -27 35 -52 38 -55 3 -3
21 -27 40 -55 19 -27 38 -54 42 -60 126 -164 261 -298 389 -387 99 -69 286
-172 374 -206 28 -10 59 -22 70 -27 11 -4 25 -9 30 -11 6 -2 37 -13 70 -24
108 -38 319 -86 420 -96 28 -3 62 -9 76 -14 30 -9 506 -6 559 5 121 23 163 47
191 109 26 59 20 234 -13 336 -43 135 -165 242 -340 298 -69 23 -241 58 -328
67 -110 12 -156 21 -226 44 -103 34 -335 143 -342 162 -2 5 -8 9 -14 9 -16 0
-195 123 -287 196 -108 87 -171 151 -220 222 -55 80 -124 151 -211 215 -129
93 -303 178 -398 193 -20 3 -40 8 -44 11 -5 2 -8 1 -8 -3z"/>
</g>
</svg>
