<?xml version="1.0" encoding="utf-8"?>
<!-- Generator: Adobe Illustrator 22.0.1, SVG Export Plug-In . SVG Version: 6.00 Build 0)  -->
<svg version="1.1" id="Layer_1" xmlns="http://www.w3.org/2000/svg" xmlns:xlink="http://www.w3.org/1999/xlink" x="0px" y="0px"
	 viewBox="0 0 82.9 82" style="enable-background:new 0 0 82.9 82;" xml:space="preserve">
<style type="text/css">
	.st0{fill:#FFFFFF;}
	.st1{fill:#22B573;}
	.st2{fill:#F7931E;}
	.st3{fill:#0071BC;}
	.st4{fill:#1A1A1A;}
	.st5{fill:#692CDD;}
	.st6{fill:#2DEA67;}
	.st7{enable-background:new    ;}
	.st8{fill:url(#SVGID_1_);}
	.st9{fill:url(#SVGID_2_);}
	.st10{fill:url(#SVGID_3_);}
	.st11{fill:url(#SVGID_4_);}
	.st12{fill:#2FA0F4;}
	.st13{fill:url(#SVGID_5_);}
	.st14{fill:url(#SVGID_6_);}
	.st15{fill:url(#SVGID_7_);}
	.st16{fill:url(#SVGID_8_);}
	.st17{fill:url(#SVGID_9_);}
	.st18{fill:url(#SVGID_10_);}
	.st19{fill:url(#SVGID_11_);}
	.st20{fill:url(#SVGID_12_);}
	.st21{fill:url(#SVGID_13_);}
	.st22{fill:url(#SVGID_14_);}
	.st23{fill:url(#SVGID_15_);}
	.st24{fill:url(#SVGID_16_);}
	.st25{fill:url(#SVGID_17_);}
	.st26{fill:url(#SVGID_18_);}
	.st27{fill:url(#SVGID_19_);}
	.st28{fill:url(#SVGID_20_);}
	.st29{clip-path:url(#SVGID_22_);fill:#ED1E79;}
	.st30{clip-path:url(#SVGID_22_);fill:#EC1E79;}
	.st31{clip-path:url(#SVGID_22_);fill:#EB1D7A;}
	.st32{clip-path:url(#SVGID_22_);fill:#EA1D7A;}
	.st33{clip-path:url(#SVGID_22_);fill:#E91D7A;}
	.st34{clip-path:url(#SVGID_22_);fill:#E91C7B;}
	.st35{clip-path:url(#SVGID_22_);fill:#E81C7B;}
	.st36{clip-path:url(#SVGID_22_);fill:#E71C7B;}
	.st37{clip-path:url(#SVGID_22_);fill:#E61B7B;}
	.st38{clip-path:url(#SVGID_22_);fill:#E61B7C;}
	.st39{clip-path:url(#SVGID_22_);fill:#E51B7C;}
	.st40{clip-path:url(#SVGID_22_);fill:#E41B7C;}
	.st41{clip-path:url(#SVGID_22_);fill:#E31A7C;}
	.st42{clip-path:url(#SVGID_22_);fill:#E31A7D;}
	.st43{clip-path:url(#SVGID_22_);fill:#E21A7D;}
	.st44{clip-path:url(#SVGID_22_);fill:#E1197D;}
	.st45{clip-path:url(#SVGID_22_);fill:#E0197E;}
	.st46{clip-path:url(#SVGID_22_);fill:#DF197E;}
	.st47{clip-path:url(#SVGID_22_);fill:#DE187E;}
	.st48{clip-path:url(#SVGID_22_);fill:#DD187E;}
	.st49{clip-path:url(#SVGID_22_);fill:#DD187F;}
	.st50{clip-path:url(#SVGID_22_);fill:#DC177F;}
	.st51{clip-path:url(#SVGID_22_);fill:#DB177F;}
	.st52{clip-path:url(#SVGID_22_);fill:#DA1680;}
	.st53{clip-path:url(#SVGID_22_);fill:#D91680;}
	.st54{clip-path:url(#SVGID_22_);fill:#D81680;}
	.st55{clip-path:url(#SVGID_22_);fill:#D71581;}
	.st56{clip-path:url(#SVGID_22_);fill:#D61581;}
	.st57{clip-path:url(#SVGID_22_);fill:#D51581;}
	.st58{clip-path:url(#SVGID_22_);fill:#D41482;}
	.st59{clip-path:url(#SVGID_22_);fill:#D31482;}
	.st60{clip-path:url(#SVGID_22_);fill:#D21383;}
	.st61{clip-path:url(#SVGID_22_);fill:#D11383;}
	.st62{clip-path:url(#SVGID_22_);fill:#D01383;}
	.st63{clip-path:url(#SVGID_22_);fill:#CF1284;}
	.st64{clip-path:url(#SVGID_22_);fill:#CD1284;}
	.st65{clip-path:url(#SVGID_22_);fill:#CC1184;}
	.st66{clip-path:url(#SVGID_22_);fill:#CB1185;}
	.st67{clip-path:url(#SVGID_22_);fill:#CA1085;}
	.st68{clip-path:url(#SVGID_22_);fill:#C91086;}
	.st69{clip-path:url(#SVGID_22_);fill:#C81086;}
	.st70{clip-path:url(#SVGID_22_);fill:#C70F86;}
	.st71{clip-path:url(#SVGID_22_);fill:#C60F87;}
	.st72{clip-path:url(#SVGID_22_);fill:#C50E87;}
	.st73{clip-path:url(#SVGID_22_);fill:#C30E88;}
	.st74{clip-path:url(#SVGID_22_);fill:#C20D88;}
	.st75{clip-path:url(#SVGID_22_);fill:#C10D88;}
	.st76{clip-path:url(#SVGID_22_);fill:#C00C89;}
	.st77{clip-path:url(#SVGID_22_);fill:#BF0C89;}
	.st78{clip-path:url(#SVGID_22_);fill:#BD0B8A;}
	.st79{clip-path:url(#SVGID_22_);fill:#BC0B8A;}
	.st80{clip-path:url(#SVGID_22_);fill:#BB0B8B;}
	.st81{clip-path:url(#SVGID_22_);fill:#BA0A8B;}
	.st82{clip-path:url(#SVGID_22_);fill:#B90A8B;}
	.st83{clip-path:url(#SVGID_22_);fill:#B7098C;}
	.st84{clip-path:url(#SVGID_22_);fill:#B6098C;}
	.st85{clip-path:url(#SVGID_22_);fill:#B5088D;}
	.st86{clip-path:url(#SVGID_22_);fill:#B4088D;}
	.st87{clip-path:url(#SVGID_22_);fill:#B2078E;}
	.st88{clip-path:url(#SVGID_22_);fill:#B1078E;}
	.st89{clip-path:url(#SVGID_22_);fill:#B0068E;}
	.st90{clip-path:url(#SVGID_22_);fill:#AF068F;}
	.st91{clip-path:url(#SVGID_22_);fill:#AD058F;}
	.st92{clip-path:url(#SVGID_22_);fill:#AC0590;}
	.st93{clip-path:url(#SVGID_22_);fill:#AB0490;}
	.st94{clip-path:url(#SVGID_22_);fill:#A90491;}
	.st95{clip-path:url(#SVGID_22_);fill:#A80391;}
	.st96{clip-path:url(#SVGID_22_);fill:#A70392;}
	.st97{clip-path:url(#SVGID_22_);fill:#A50292;}
	.st98{clip-path:url(#SVGID_22_);fill:#A40293;}
	.st99{clip-path:url(#SVGID_22_);fill:#A30193;}
	.st100{clip-path:url(#SVGID_22_);fill:#A10194;}
	.st101{clip-path:url(#SVGID_22_);fill:#A00094;}
	.st102{fill:#2A7DF5;}
	.st103{fill:none;stroke:#333333;stroke-miterlimit:10;}
	.st104{fill:url(#SVGID_23_);}
	.st105{fill:url(#SVGID_24_);}
	.st106{fill:url(#SVGID_25_);}
	.st107{fill:url(#SVGID_26_);}
	.st108{fill:url(#SVGID_27_);}
	.st109{fill:url(#SVGID_28_);}
	.st110{fill:url(#SVGID_29_);}
	.st111{fill:url(#SVGID_30_);}
	.st112{fill:url(#SVGID_31_);}
	.st113{fill:url(#SVGID_32_);}
	.st114{fill:url(#SVGID_33_);}
	.st115{fill:url(#SVGID_34_);}
	.st116{fill:url(#SVGID_35_);}
	.st117{fill:url(#SVGID_36_);}
	.st118{fill:url(#SVGID_37_);}
	.st119{display:none;}
	.st120{fill:url(#SVGID_38_);}
	.st121{display:none;fill:url(#SVGID_39_);}
	.st122{fill:url(#SVGID_40_);}
	.st123{fill:url(#SVGID_41_);}
	.st124{display:none;fill:url(#SVGID_42_);}
	.st125{fill:url(#SVGID_43_);}
	.st126{fill:url(#SVGID_44_);}
	.st127{display:none;fill:url(#SVGID_45_);}
	.st128{fill:url(#SVGID_46_);}
	.st129{fill:url(#SVGID_47_);}
	.st130{display:none;fill:url(#SVGID_48_);}
	.st131{fill:url(#SVGID_49_);}
	.st132{fill:url(#SVGID_50_);}
	.st133{display:none;fill:url(#SVGID_51_);}
	.st134{fill:url(#SVGID_52_);}
	.st135{display:none;fill:url(#SVGID_53_);}
	.st136{display:none;fill:url(#SVGID_54_);}
	.st137{display:none;fill:url(#SVGID_55_);}
	.st138{display:none;fill:url(#SVGID_56_);}
	.st139{display:none;fill:url(#SVGID_57_);}
	.st140{fill:url(#SVGID_58_);}
	.st141{display:none;fill:url(#SVGID_59_);}
	.st142{fill:url(#SVGID_60_);}
	.st143{fill:url(#SVGID_61_);}
	.st144{display:none;fill:url(#SVGID_62_);}
	.st145{fill:url(#SVGID_63_);}
	.st146{fill:url(#SVGID_64_);}
	.st147{display:none;fill:url(#SVGID_65_);}
	.st148{fill:url(#SVGID_66_);}
	.st149{fill:url(#SVGID_67_);}
	.st150{display:none;fill:url(#SVGID_68_);}
	.st151{fill:url(#SVGID_69_);}
	.st152{fill:url(#SVGID_70_);}
	.st153{display:none;fill:url(#SVGID_71_);}
	.st154{fill:url(#SVGID_72_);}
	.st155{fill:url(#SVGID_73_);}
	.st156{fill:url(#SVGID_74_);}
	.st157{fill:url(#SVGID_75_);}
	.st158{fill:url(#SVGID_76_);}
	.st159{fill:url(#SVGID_77_);}
	.st160{fill:url(#SVGID_78_);}
	.st161{fill:url(#SVGID_79_);}
	.st162{fill:url(#SVGID_80_);}
	.st163{fill:url(#SVGID_81_);}
	.st164{fill:url(#SVGID_82_);}
	.st165{fill:url(#SVGID_83_);}
	.st166{fill:url(#SVGID_84_);}
	.st167{fill:url(#SVGID_85_);}
	.st168{fill:url(#SVGID_86_);}
	.st169{fill:url(#SVGID_87_);}
</style>
<g>
	<g>
		
			<linearGradient id="SVGID_1_" gradientUnits="userSpaceOnUse" x1="62.4391" y1="143.9043" x2="91.3487" y2="143.9043" gradientTransform="matrix(0.9959 9.079489e-02 -9.079489e-02 0.9959 -1.1546 -82.3422)">
			<stop  offset="0" style="stop-color:#D01E1C"/>
			<stop  offset="0.3822" style="stop-color:#D91C1B"/>
			<stop  offset="1" style="stop-color:#F21719"/>
		</linearGradient>
		<path class="st8" d="M76.7,62.4c1.7-5.6,1.8-6.7-2.6-7.4c-4.4-0.7-6.5,3.2-8.4,7.3c-1.9,4.1-9,9.1-11.4,9.7
			c-2.3,0.5-5,2.9-6.2,4.3c-0.7,0.8-1.1,1.5-1.3,1.9c0,0,0,0,0.1,0l0.7-0.1c0.5,0,0.9-0.1,1.4-0.2l0.3,0l0.3-0.1
			c0.2,0,0.5-0.1,0.7-0.1c0.2,0,0.4-0.1,0.7-0.1c0.2,0,0.4-0.1,0.7-0.1c0.4-0.1,0.9-0.2,1.3-0.3c0.9-0.2,1.8-0.5,2.6-0.8
			c0.4-0.1,0.9-0.3,1.3-0.5c0.4-0.2,0.8-0.3,1.2-0.5c0.4-0.2,0.8-0.4,1.2-0.6l0.6-0.3c0.1-0.1,0.2-0.1,0.3-0.2l0.3-0.2
			c1.6-0.9,3-2,4.4-3.2l0.3-0.2l0.2-0.2l0.5-0.5c0.2-0.2,0.3-0.3,0.5-0.5c0.2-0.2,0.3-0.3,0.5-0.5l0.4-0.5l0.2-0.3
			c0.1-0.1,0.1-0.2,0.2-0.3c0.3-0.4,0.6-0.7,0.8-1.1l0.4-0.5c0.1-0.2,0.3-0.4,0.4-0.6l0.4-0.6l0.4-0.6l0.4-0.6l0.3-0.6l0.3-0.6
			c0.1-0.2,0.2-0.4,0.3-0.6c0.9-1.6,1.6-3.3,2.3-5c-0.5,1.8-1.2,3.5-1.9,5.2c-0.1,0.2-0.2,0.4-0.3,0.6l-0.3,0.6
			c-0.1,0.2-0.2,0.4-0.3,0.6l-0.3,0.6c-0.1,0.2-0.2,0.4-0.3,0.6L70,66c-0.1,0.2-0.2,0.4-0.4,0.6l-0.4,0.6c-0.3,0.4-0.5,0.8-0.8,1.1
			c-0.1,0.1-0.1,0.2-0.2,0.3l-0.2,0.3l-0.4,0.5c-0.1,0.2-0.3,0.3-0.5,0.5c-0.2,0.2-0.3,0.3-0.5,0.5L66,70.9l-0.2,0.2l-0.3,0.2
			L65,71.9c-0.2,0.2-0.4,0.3-0.5,0.5c-0.4,0.3-0.7,0.6-1.1,0.9c-0.8,0.6-1.5,1.1-2.3,1.5l-0.3,0.2c-0.1,0.1-0.2,0.1-0.3,0.2
			l-0.6,0.3c-0.4,0.2-0.8,0.4-1.3,0.6c-0.4,0.2-0.9,0.4-1.3,0.5c-0.4,0.2-0.9,0.3-1.3,0.5c-1.8,0.6-3.6,1-5.4,1.3
			c-0.2,0-0.5,0.1-0.7,0.1l-0.3,0l-0.3,0c-0.5,0-0.9,0.1-1.4,0.1l-0.7,0c0,0-0.1,0-0.1,0c0.4,0.4,1.7,1.5,3.2,2
			c1.7,0.6,4.2,1.4,12-1.5S75,68,76.7,62.4z"/>
		
			<linearGradient id="SVGID_2_" gradientUnits="userSpaceOnUse" x1="62.3416" y1="144.0259" x2="87.4082" y2="144.0259" gradientTransform="matrix(0.9959 9.079489e-02 -9.079489e-02 0.9959 -1.1546 -82.3422)">
			<stop  offset="0" style="stop-color:#D01E1C"/>
			<stop  offset="0.3822" style="stop-color:#D91C1B"/>
			<stop  offset="1" style="stop-color:#F21719"/>
		</linearGradient>
		<path style="display:none;fill:url(#SVGID_2_);" d="M47.7,78.6c0.5,0,0.9-0.1,1.4-0.1l0.3,0l0.3,0c0.2,0,0.5-0.1,0.7-0.1
			c1.8-0.3,3.7-0.7,5.4-1.3c0.4-0.1,0.9-0.3,1.3-0.5c0.4-0.2,0.9-0.3,1.3-0.5c0.4-0.2,0.8-0.4,1.3-0.6l0.6-0.3
			c0.1-0.1,0.2-0.1,0.3-0.2l0.3-0.2c0.8-0.5,1.6-1,2.3-1.5c0.4-0.3,0.7-0.6,1.1-0.9c0.2-0.2,0.4-0.3,0.5-0.5l0.5-0.5l0.3-0.2
			l0.2-0.2l0.5-0.5c0.2-0.2,0.3-0.3,0.5-0.5c0.2-0.2,0.3-0.3,0.5-0.5l0.4-0.5l0.2-0.3c0.1-0.1,0.1-0.2,0.2-0.3
			c0.3-0.4,0.6-0.7,0.8-1.1l0.4-0.6c0.1-0.2,0.3-0.4,0.4-0.6l0.4-0.6c0.1-0.2,0.2-0.4,0.3-0.6l0.3-0.6c0.1-0.2,0.2-0.4,0.3-0.6
			l0.3-0.6c0.1-0.2,0.2-0.4,0.3-0.6c0.8-1.7,1.4-3.4,1.9-5.2c-0.7,1.7-1.5,3.4-2.3,5c-0.1,0.2-0.2,0.4-0.3,0.6l-0.3,0.6L70.5,64
			l-0.4,0.6l-0.4,0.6l-0.4,0.6c-0.1,0.2-0.3,0.4-0.4,0.6l-0.4,0.5c-0.3,0.4-0.6,0.7-0.8,1.1c-0.1,0.1-0.1,0.2-0.2,0.3l-0.2,0.3
			l-0.4,0.5c-0.1,0.2-0.3,0.3-0.5,0.5c-0.2,0.2-0.3,0.3-0.5,0.5l-0.5,0.5l-0.2,0.2L65,70.8c-1.3,1.2-2.8,2.3-4.4,3.2l-0.3,0.2
			c-0.1,0.1-0.2,0.1-0.3,0.2l-0.6,0.3c-0.4,0.2-0.8,0.4-1.2,0.6c-0.4,0.2-0.8,0.4-1.2,0.5c-0.4,0.2-0.8,0.3-1.3,0.5
			c-0.9,0.3-1.7,0.6-2.6,0.8c-0.4,0.1-0.9,0.2-1.3,0.3c-0.2,0.1-0.4,0.1-0.7,0.1c-0.2,0-0.4,0.1-0.7,0.1c-0.2,0-0.4,0.1-0.7,0.1
			l-0.3,0.1l-0.3,0c-0.5,0.1-0.9,0.1-1.4,0.2L47,78.1c0,0,0,0-0.1,0c-0.1,0.3-0.1,0.4-0.1,0.4s0,0,0.1,0.1c0,0,0.1,0,0.1,0
			L47.7,78.6z"/>
	</g>
	
		<linearGradient id="SVGID_3_" gradientUnits="userSpaceOnUse" x1="56.9534" y1="155.6495" x2="62.587" y2="155.6495" gradientTransform="matrix(0.9959 9.079489e-02 -9.079489e-02 0.9959 -1.1546 -82.3422)">
		<stop  offset="0" style="stop-color:#D01E1C"/>
		<stop  offset="0.3822" style="stop-color:#D91C1B"/>
		<stop  offset="1" style="stop-color:#F21719"/>
	</linearGradient>
	<path class="st10" d="M47,78c-0.2,0-0.5,0-0.7,0c-0.2,0-0.4,0-0.6,0c-1,0-2.5,0-4.3-0.4c0.1,0,0.1,0.1,0.2,0.1c1,0.4,2,0.6,3.1,0.7
		l0.8,0.1c0.1,0,0.3,0,0.4,0l0.4,0c0.2,0,0.5,0,0.7,0C46.9,78.5,46.9,78.3,47,78z"/>
</g>
<g>
	<g>
		
			<linearGradient id="SVGID_4_" gradientUnits="userSpaceOnUse" x1="446.33" y1="-782.7834" x2="475.2397" y2="-782.7834" gradientTransform="matrix(0.3941 -0.9191 0.9191 0.3941 610.1287 762.5762)">
			<stop  offset="0" style="stop-color:#4CB940"/>
			<stop  offset="0.2154" style="stop-color:#55BC3E"/>
			<stop  offset="0.5734" style="stop-color:#6FC337"/>
			<stop  offset="0.9974" style="stop-color:#95CD2E"/>
		</linearGradient>
		<path class="st11" d="M71.4,15.2c-4.8-3.3-5.8-3.8-7.8,0.1c-2,4,1,7.2,4.3,10.2c3.3,3.1,5.9,11.4,5.7,13.8s1.2,5.7,2.1,7.2
			c0.5,1,1.1,1.5,1.4,1.8c0,0,0,0,0-0.1l0.2-0.7c0.1-0.4,0.2-0.9,0.3-1.3l0.1-0.3l0.1-0.3c0-0.2,0.1-0.5,0.1-0.7
			c0-0.2,0.1-0.5,0.1-0.7c0-0.2,0.1-0.5,0.1-0.7c0-0.5,0.1-0.9,0.1-1.4c0.1-0.9,0.1-1.8,0.1-2.7c0-0.5,0-0.9-0.1-1.4
			c0-0.5-0.1-0.9-0.1-1.4c0-0.5-0.1-0.9-0.2-1.3l-0.1-0.7c0-0.1,0-0.2-0.1-0.3l-0.1-0.3c-0.4-1.8-1-3.5-1.7-5.1l-0.1-0.3l-0.1-0.3
			l-0.3-0.6c-0.1-0.2-0.2-0.4-0.3-0.6c-0.1-0.2-0.2-0.4-0.3-0.6L74.2,26l-0.2-0.3c-0.1-0.1-0.1-0.2-0.2-0.3
			c-0.2-0.4-0.5-0.8-0.8-1.1l-0.4-0.6c-0.1-0.2-0.3-0.4-0.4-0.5l-0.4-0.5l-0.4-0.5L71,21.6l-0.5-0.5l-0.5-0.5
			c-0.2-0.2-0.3-0.3-0.5-0.5c-1.3-1.3-2.6-2.6-4-3.8c1.5,1,3,2.2,4.3,3.4c0.2,0.2,0.3,0.3,0.5,0.5l0.5,0.5c0.2,0.2,0.3,0.3,0.5,0.5
			l0.5,0.5c0.2,0.2,0.3,0.3,0.5,0.5l0.4,0.5c0.1,0.2,0.3,0.4,0.4,0.5l0.4,0.6c0.3,0.4,0.5,0.8,0.8,1.1c0.1,0.1,0.1,0.2,0.2,0.3
			l0.2,0.3l0.4,0.6c0.1,0.2,0.2,0.4,0.4,0.6c0.1,0.2,0.2,0.4,0.3,0.6l0.3,0.6l0.2,0.3l0.1,0.3l0.3,0.6c0.1,0.2,0.2,0.4,0.3,0.6
			c0.2,0.4,0.3,0.9,0.5,1.3c0.3,0.9,0.6,1.8,0.7,2.7l0.1,0.3c0,0.1,0,0.2,0.1,0.3l0.1,0.7c0.1,0.5,0.1,0.9,0.2,1.4
			c0.1,0.5,0.1,0.9,0.1,1.4c0,0.5,0,0.9,0,1.4c0,1.9-0.2,3.7-0.5,5.6c0,0.2-0.1,0.5-0.1,0.7l-0.1,0.3l-0.1,0.3
			c-0.1,0.5-0.2,0.9-0.3,1.4l-0.2,0.7c0,0,0,0.1,0,0.1c0.5-0.3,1.9-1.2,2.9-2.4c1.1-1.5,2.7-3.5,2.3-11.9
			C82.5,25.9,76.2,18.6,71.4,15.2z"/>
		
			<linearGradient id="SVGID_5_" gradientUnits="userSpaceOnUse" x1="446.2325" y1="-782.6619" x2="471.2991" y2="-782.6619" gradientTransform="matrix(0.3941 -0.9191 0.9191 0.3941 610.1287 762.5762)">
			<stop  offset="0" style="stop-color:#4CB940"/>
			<stop  offset="0.2154" style="stop-color:#55BC3E"/>
			<stop  offset="0.5734" style="stop-color:#6FC337"/>
			<stop  offset="0.9974" style="stop-color:#95CD2E"/>
		</linearGradient>
		<path style="display:none;fill:url(#SVGID_5_);" d="M77.9,47.8c0.1-0.4,0.2-0.9,0.3-1.4l0.1-0.3l0.1-0.3c0-0.2,0.1-0.5,0.1-0.7
			c0.3-1.8,0.5-3.7,0.5-5.6c0-0.5,0-0.9,0-1.4c0-0.5-0.1-0.9-0.1-1.4c0-0.5-0.1-0.9-0.2-1.4l-0.1-0.7c0-0.1,0-0.2-0.1-0.3L78.4,34
			c-0.2-0.9-0.5-1.8-0.7-2.7c-0.2-0.4-0.3-0.9-0.5-1.3c-0.1-0.2-0.2-0.4-0.3-0.6l-0.3-0.6l-0.1-0.3L76.3,28l-0.3-0.6
			c-0.1-0.2-0.2-0.4-0.3-0.6c-0.1-0.2-0.2-0.4-0.4-0.6l-0.4-0.6l-0.2-0.3c-0.1-0.1-0.1-0.2-0.2-0.3c-0.3-0.4-0.5-0.8-0.8-1.1
			l-0.4-0.6c-0.1-0.2-0.3-0.4-0.4-0.5l-0.4-0.5c-0.2-0.2-0.3-0.3-0.5-0.5l-0.5-0.5c-0.2-0.2-0.3-0.3-0.5-0.5l-0.5-0.5
			c-0.2-0.2-0.3-0.3-0.5-0.5c-1.4-1.3-2.8-2.4-4.3-3.4c1.4,1.2,2.8,2.4,4,3.8c0.2,0.2,0.3,0.3,0.5,0.5l0.5,0.5l0.5,0.5l0.4,0.5
			l0.4,0.5l0.4,0.5c0.1,0.2,0.3,0.4,0.4,0.5l0.4,0.6c0.3,0.4,0.5,0.8,0.8,1.1c0.1,0.1,0.1,0.2,0.2,0.3l0.2,0.3l0.3,0.6
			c0.1,0.2,0.2,0.4,0.3,0.6c0.1,0.2,0.2,0.4,0.3,0.6l0.3,0.6l0.1,0.3l0.1,0.3c0.7,1.7,1.3,3.4,1.7,5.1l0.1,0.3c0,0.1,0,0.2,0.1,0.3
			l0.1,0.7c0.1,0.4,0.1,0.9,0.2,1.3c0.1,0.4,0.1,0.9,0.1,1.4c0,0.5,0,0.9,0.1,1.4c0,0.9,0,1.8-0.1,2.7c0,0.5-0.1,0.9-0.1,1.4
			c0,0.2,0,0.5-0.1,0.7c0,0.2-0.1,0.5-0.1,0.7c0,0.2-0.1,0.5-0.1,0.7L77.6,46l-0.1,0.3c-0.1,0.4-0.2,0.9-0.3,1.3l-0.2,0.7
			c0,0,0,0,0,0.1c0.2,0.2,0.4,0.3,0.4,0.3s0.1,0,0.2-0.1c0,0,0-0.1,0-0.1L77.9,47.8z"/>
	</g>
	
		<linearGradient id="SVGID_6_" gradientUnits="userSpaceOnUse" x1="440.8444" y1="-771.0383" x2="446.478" y2="-771.0383" gradientTransform="matrix(0.3941 -0.9191 0.9191 0.3941 610.1287 762.5762)">
		<stop  offset="0" style="stop-color:#4CB940"/>
		<stop  offset="0.2154" style="stop-color:#55BC3E"/>
		<stop  offset="0.5734" style="stop-color:#6FC337"/>
		<stop  offset="0.9974" style="stop-color:#95CD2E"/>
	</linearGradient>
	<path class="st14" d="M77.1,48.3c-0.1,0.2-0.1,0.4-0.2,0.7c0,0.2-0.1,0.4-0.2,0.5c-0.3,1-0.8,2.4-1.7,4c0-0.1,0.1-0.1,0.1-0.2
		c0.7-0.8,1.2-1.8,1.7-2.7l0.3-0.7c0-0.1,0.1-0.2,0.2-0.4l0.1-0.4c0.1-0.2,0.2-0.4,0.2-0.7C77.6,48.5,77.4,48.5,77.1,48.3z"/>
</g>
<g>
	<g>
		
			<linearGradient id="SVGID_7_" gradientUnits="userSpaceOnUse" x1="1446.2913" y1="-704.0438" x2="1475.2009" y2="-704.0438" gradientTransform="matrix(-0.7523 -0.6588 0.6588 -0.7523 1602.5908 442.3053)">
			<stop  offset="0" style="stop-color:#3E65B4"/>
			<stop  offset="0.1803" style="stop-color:#3B6EBA"/>
			<stop  offset="0.4799" style="stop-color:#3288C9"/>
			<stop  offset="0.8597" style="stop-color:#24B1E3"/>
			<stop  offset="1" style="stop-color:#1EC2ED"/>
		</linearGradient>
		<path class="st15" d="M24.9,5.7c-4.7,3.5-5.4,4.3-2.3,7.5s7.1,1.2,11.1-1s12.7-2.1,14.9-1.1c2.2,1,5.8,0.6,7.5,0.2
			c1.1-0.2,1.8-0.6,2.1-0.8c0,0,0,0-0.1,0l-0.6-0.4c-0.4-0.2-0.8-0.4-1.2-0.7l-0.3-0.2l-0.3-0.2c-0.2-0.1-0.4-0.2-0.6-0.3
			c-0.2-0.1-0.4-0.2-0.6-0.3c-0.2-0.1-0.4-0.2-0.6-0.3c-0.4-0.2-0.8-0.4-1.3-0.5c-0.8-0.3-1.7-0.6-2.6-0.9c-0.4-0.1-0.9-0.2-1.3-0.4
			c-0.4-0.1-0.9-0.2-1.3-0.3c-0.4-0.1-0.9-0.2-1.3-0.2l-0.7-0.1c-0.1,0-0.2,0-0.3,0l-0.3,0c-1.8-0.2-3.6-0.2-5.4,0l-0.3,0l-0.3,0
			L38,5.9c-0.2,0-0.4,0.1-0.7,0.1c-0.2,0-0.4,0.1-0.7,0.1L36,6.3l-0.3,0.1c-0.1,0-0.2,0.1-0.3,0.1c-0.4,0.1-0.9,0.2-1.3,0.4
			l-0.7,0.2c-0.2,0.1-0.4,0.1-0.6,0.2l-0.6,0.2l-0.6,0.2L30.9,8l-0.6,0.3l-0.6,0.3c-0.2,0.1-0.4,0.2-0.6,0.3
			c-1.7,0.8-3.3,1.7-4.8,2.7c1.5-1.1,3-2.2,4.6-3.1c0.2-0.1,0.4-0.2,0.6-0.3L30,7.8c0.2-0.1,0.4-0.2,0.6-0.3l0.6-0.3
			c0.2-0.1,0.4-0.2,0.6-0.3l0.6-0.3c0.2-0.1,0.4-0.2,0.7-0.3l0.7-0.2c0.4-0.2,0.9-0.3,1.3-0.4c0.1,0,0.2-0.1,0.3-0.1l0.3-0.1
			l0.7-0.2c0.2-0.1,0.5-0.1,0.7-0.1c0.2,0,0.5-0.1,0.7-0.1L38.6,5L39,5l0.3,0L40,4.9c0.2,0,0.5,0,0.7-0.1c0.5,0,0.9,0,1.4-0.1
			c0.9,0,1.9,0,2.8,0.1l0.3,0c0.1,0,0.2,0,0.3,0L46.3,5c0.5,0.1,0.9,0.2,1.4,0.3c0.5,0.1,0.9,0.2,1.4,0.3c0.4,0.1,0.9,0.2,1.3,0.4
			c1.8,0.6,3.5,1.3,5.1,2.2c0.2,0.1,0.4,0.2,0.6,0.3l0.3,0.2l0.3,0.2c0.4,0.2,0.8,0.5,1.2,0.7l0.6,0.4c0,0,0,0,0.1,0.1
			c-0.1-0.5-0.5-2.2-1.4-3.5c-1-1.5-2.5-3.6-10.6-5.9S29.6,2.2,24.9,5.7z"/>
		
			<linearGradient id="SVGID_8_" gradientUnits="userSpaceOnUse" x1="1446.1937" y1="-703.9222" x2="1471.2604" y2="-703.9222" gradientTransform="matrix(-0.7523 -0.6588 0.6588 -0.7523 1602.5908 442.3053)">
			<stop  offset="0" style="stop-color:#3E65B4"/>
			<stop  offset="0.1803" style="stop-color:#3B6EBA"/>
			<stop  offset="0.4799" style="stop-color:#3288C9"/>
			<stop  offset="0.8597" style="stop-color:#24B1E3"/>
			<stop  offset="1" style="stop-color:#1EC2ED"/>
		</linearGradient>
		<path style="display:none;fill:url(#SVGID_8_);" d="M57.9,9.6c-0.4-0.3-0.8-0.5-1.2-0.7l-0.3-0.2l-0.3-0.2
			c-0.2-0.1-0.4-0.2-0.6-0.3c-1.6-0.9-3.4-1.6-5.1-2.2c-0.4-0.1-0.9-0.3-1.3-0.4c-0.5-0.1-0.9-0.2-1.4-0.3c-0.5-0.1-0.9-0.2-1.4-0.3
			l-0.7-0.1c-0.1,0-0.2,0-0.3,0l-0.3,0C44,4.8,43,4.7,42.1,4.7c-0.5,0-0.9,0-1.4,0.1c-0.2,0-0.5,0-0.7,0.1l-0.7,0.1L39,5L38.6,5
			l-0.7,0.1c-0.2,0-0.5,0.1-0.7,0.1c-0.2,0-0.5,0.1-0.7,0.1l-0.7,0.2l-0.3,0.1c-0.1,0-0.2,0.1-0.3,0.1c-0.4,0.1-0.9,0.3-1.3,0.4
			l-0.7,0.2c-0.2,0.1-0.4,0.2-0.7,0.3l-0.6,0.3c-0.2,0.1-0.4,0.2-0.6,0.3l-0.6,0.3c-0.2,0.1-0.4,0.2-0.6,0.3l-0.6,0.3
			c-0.2,0.1-0.4,0.2-0.6,0.3c-1.6,0.9-3.2,1.9-4.6,3.1c1.6-1,3.2-1.9,4.8-2.7c0.2-0.1,0.4-0.2,0.6-0.3l0.6-0.3L30.9,8l0.6-0.3
			l0.6-0.2l0.6-0.2c0.2-0.1,0.4-0.2,0.6-0.2l0.7-0.2c0.4-0.1,0.9-0.2,1.3-0.4c0.1,0,0.2-0.1,0.3-0.1L36,6.3l0.7-0.1
			c0.2-0.1,0.4-0.1,0.7-0.1C37.6,6,37.8,6,38,5.9l0.7-0.1l0.3,0l0.3,0c1.8-0.2,3.6-0.2,5.4,0l0.3,0c0.1,0,0.2,0,0.3,0l0.7,0.1
			c0.4,0.1,0.9,0.1,1.3,0.2c0.4,0.1,0.9,0.2,1.3,0.3c0.4,0.1,0.9,0.2,1.3,0.4c0.9,0.3,1.7,0.6,2.6,0.9c0.4,0.2,0.8,0.3,1.3,0.5
			c0.2,0.1,0.4,0.2,0.6,0.3c0.2,0.1,0.4,0.2,0.6,0.3c0.2,0.1,0.4,0.2,0.6,0.3l0.3,0.2l0.3,0.2c0.4,0.2,0.8,0.4,1.2,0.7l0.6,0.4
			c0,0,0,0,0.1,0c0.2-0.2,0.4-0.3,0.4-0.3s0-0.1,0-0.2c0,0,0,0-0.1-0.1L57.9,9.6z"/>
	</g>
	
		<linearGradient id="SVGID_9_" gradientUnits="userSpaceOnUse" x1="1440.8057" y1="-692.2985" x2="1446.4392" y2="-692.2985" gradientTransform="matrix(-0.7523 -0.6588 0.6588 -0.7523 1602.5908 442.3053)">
		<stop  offset="0" style="stop-color:#3E65B4"/>
		<stop  offset="0.1803" style="stop-color:#3B6EBA"/>
		<stop  offset="0.4799" style="stop-color:#3288C9"/>
		<stop  offset="0.8597" style="stop-color:#24B1E3"/>
		<stop  offset="1" style="stop-color:#1EC2ED"/>
	</linearGradient>
	<path class="st17" d="M58.1,10.5c0.2,0.1,0.4,0.3,0.6,0.4c0.2,0.1,0.3,0.2,0.5,0.3c0.8,0.6,2,1.5,3.3,2.8c0-0.1-0.1-0.1-0.1-0.2
		c-0.6-0.9-1.3-1.7-2.1-2.4l-0.6-0.5c-0.1-0.1-0.2-0.2-0.3-0.3l-0.3-0.2c-0.2-0.1-0.4-0.3-0.5-0.4C58.5,10.1,58.4,10.3,58.1,10.5z"
		/>
</g>
<g>
	<g>
		
			<linearGradient id="SVGID_10_" gradientUnits="userSpaceOnUse" x1="1680.4104" y1="271.3078" x2="1709.3201" y2="271.3078" gradientTransform="matrix(-0.859 0.5119 -0.5119 -0.859 1604.6827 -600.5514)">
			<stop  offset="0" style="stop-color:#FA9000"/>
			<stop  offset="1" style="stop-color:#FFD900"/>
		</linearGradient>
		<path class="st18" d="M1.5,46.9C3.4,52.5,4,53.4,8,51.4s3.4-6.4,2.5-10.8c-0.9-4.4,1.9-12.7,3.5-14.5c1.6-1.8,2.3-5.3,2.5-7.1
			c0.1-1.1,0-1.9-0.1-2.3c0,0,0,0-0.1,0l-0.5,0.4c-0.3,0.3-0.7,0.6-1,0.9l-0.2,0.2l-0.2,0.2c-0.2,0.2-0.3,0.3-0.5,0.5
			c-0.2,0.2-0.3,0.3-0.5,0.5c-0.2,0.2-0.3,0.3-0.5,0.5c-0.3,0.3-0.6,0.7-0.9,1c-0.6,0.7-1.1,1.4-1.6,2.2c-0.3,0.4-0.5,0.8-0.8,1.1
			c-0.2,0.4-0.5,0.8-0.7,1.2c-0.2,0.4-0.4,0.8-0.6,1.2L8,27.4c0,0.1-0.1,0.2-0.1,0.3l-0.1,0.3c-0.7,1.7-1.3,3.4-1.7,5.2L6,33.5
			l-0.1,0.3l-0.1,0.7c0,0.2-0.1,0.4-0.1,0.7c0,0.2-0.1,0.4-0.1,0.7l-0.1,0.7l0,0.3c0,0.1,0,0.2,0,0.3c0,0.5-0.1,0.9-0.1,1.4l0,0.7
			c0,0.2,0,0.5,0,0.7l0,0.7l0,0.7l0,0.7l0.1,0.7l0.1,0.7c0,0.2,0.1,0.5,0.1,0.7c0.2,1.8,0.6,3.6,1,5.4c-0.6-1.7-1.1-3.5-1.5-5.3
			c0-0.2-0.1-0.5-0.1-0.7l-0.1-0.7c0-0.2-0.1-0.5-0.1-0.7l-0.1-0.7c0-0.2-0.1-0.5-0.1-0.7l0-0.7c0-0.2,0-0.5,0-0.7l0-0.7
			c0-0.5,0-0.9,0-1.4c0-0.1,0-0.2,0-0.3l0-0.3l0-0.7c0-0.2,0-0.5,0.1-0.7c0-0.2,0-0.5,0.1-0.7l0.1-0.7l0.1-0.3L5.2,33l0.1-0.7
			c0.1-0.2,0.1-0.5,0.2-0.7c0.1-0.5,0.2-0.9,0.4-1.4c0.3-0.9,0.6-1.8,1-2.6L7,27.4c0-0.1,0.1-0.2,0.2-0.3l0.3-0.6
			c0.2-0.4,0.4-0.8,0.7-1.2c0.2-0.4,0.5-0.8,0.7-1.2c0.3-0.4,0.5-0.8,0.8-1.2c1.1-1.5,2.3-2.9,3.7-4.2c0.2-0.2,0.3-0.3,0.5-0.5
			l0.3-0.2l0.3-0.2c0.4-0.3,0.7-0.6,1.1-0.9l0.6-0.4c0,0,0.1,0,0.1-0.1c-0.5-0.1-2.3-0.2-3.7,0.3c-1.8,0.5-4.2,1.3-8.9,8.2
			S-0.4,41.4,1.5,46.9z"/>
		
			<linearGradient id="SVGID_11_" gradientUnits="userSpaceOnUse" x1="1680.3129" y1="271.4294" x2="1705.3795" y2="271.4294" gradientTransform="matrix(-0.859 0.5119 -0.5119 -0.859 1604.6827 -600.5514)">
			<stop  offset="0" style="stop-color:#FA9000"/>
			<stop  offset="1" style="stop-color:#FFD900"/>
		</linearGradient>
		<path style="display:none;fill:url(#SVGID_11_);" d="M15.4,16.8c-0.4,0.3-0.7,0.6-1.1,0.9l-0.3,0.2l-0.3,0.2
			c-0.2,0.2-0.3,0.3-0.5,0.5c-1.3,1.3-2.6,2.7-3.7,4.2c-0.3,0.4-0.5,0.8-0.8,1.2c-0.2,0.4-0.5,0.8-0.7,1.2c-0.2,0.4-0.4,0.8-0.7,1.2
			l-0.3,0.6c-0.1,0.1-0.1,0.2-0.2,0.3l-0.1,0.3c-0.4,0.9-0.7,1.7-1,2.6c-0.1,0.4-0.3,0.9-0.4,1.4c-0.1,0.2-0.1,0.5-0.2,0.7L5.2,33
			l-0.1,0.3l-0.1,0.3L5,34.4c0,0.2-0.1,0.5-0.1,0.7c0,0.2-0.1,0.5-0.1,0.7l0,0.7l0,0.3c0,0.1,0,0.2,0,0.3c0,0.5,0,0.9,0,1.4l0,0.7
			c0,0.2,0,0.5,0,0.7l0,0.7c0,0.2,0,0.5,0.1,0.7L5,42.1c0,0.2,0.1,0.5,0.1,0.7l0.1,0.7c0,0.2,0.1,0.5,0.1,0.7
			c0.4,1.8,0.9,3.6,1.5,5.3c-0.4-1.8-0.8-3.6-1-5.4c0-0.2-0.1-0.5-0.1-0.7l-0.1-0.7L5.6,42l0-0.7l0-0.7l0-0.7c0-0.2,0-0.5,0-0.7
			l0-0.7c0-0.5,0-0.9,0.1-1.4c0-0.1,0-0.2,0-0.3l0-0.3l0.1-0.7c0-0.2,0.1-0.5,0.1-0.7c0-0.2,0.1-0.5,0.1-0.7l0.1-0.7L6,33.5l0.1-0.3
			c0.4-1.8,0.9-3.5,1.7-5.2l0.1-0.3c0-0.1,0.1-0.2,0.1-0.3l0.3-0.6c0.2-0.4,0.4-0.8,0.6-1.2c0.2-0.4,0.5-0.8,0.7-1.2
			c0.2-0.4,0.5-0.8,0.8-1.1c0.5-0.7,1.1-1.5,1.6-2.2c0.3-0.3,0.6-0.7,0.9-1c0.1-0.2,0.3-0.3,0.5-0.5c0.2-0.2,0.3-0.3,0.5-0.5
			c0.2-0.2,0.3-0.3,0.5-0.5l0.2-0.2l0.2-0.2c0.3-0.3,0.7-0.6,1-0.9l0.5-0.4c0,0,0,0,0.1,0c-0.1-0.3-0.1-0.4-0.1-0.4s-0.1,0-0.2,0
			c0,0-0.1,0-0.1,0.1L15.4,16.8z"/>
	</g>
	
		<linearGradient id="SVGID_12_" gradientUnits="userSpaceOnUse" x1="1674.9247" y1="283.053" x2="1680.5583" y2="283.053" gradientTransform="matrix(-0.859 0.5119 -0.5119 -0.859 1604.6827 -600.5514)">
		<stop  offset="0" style="stop-color:#FA9000"/>
		<stop  offset="1" style="stop-color:#FFD900"/>
	</linearGradient>
	<path class="st20" d="M16.3,16.9c0.2-0.1,0.4-0.3,0.5-0.4c0.1-0.1,0.3-0.2,0.4-0.3c0.8-0.6,2.1-1.5,3.7-2.3c-0.1,0-0.1,0-0.2,0.1
		c-1,0.3-2,0.7-2.9,1.2l-0.7,0.4c-0.1,0.1-0.2,0.1-0.3,0.2L16.5,16c-0.2,0.1-0.4,0.3-0.6,0.4C16.1,16.4,16.3,16.5,16.3,16.9z"/>
</g>
<g>
	<g>
		
			<linearGradient id="SVGID_13_" gradientUnits="userSpaceOnUse" x1="825.1427" y1="795.3685" x2="854.0524" y2="795.3685" gradientTransform="matrix(0.2214 0.9752 -0.9752 0.2214 613.5136 -924.8014)">
			<stop  offset="0" style="stop-color:#AB1B81"/>
			<stop  offset="0.295" style="stop-color:#B41A7A"/>
			<stop  offset="0.7839" style="stop-color:#CE1666"/>
			<stop  offset="0.9987" style="stop-color:#DB145C"/>
		</linearGradient>
		<path class="st21" d="M33.5,82c5.9-0.1,6.9-0.3,6.3-4.7c-0.7-4.4-5-5.2-9.5-5.7s-11.5-5.7-12.7-7.8c-1.2-2.1-4.3-3.9-6-4.6
			c-1-0.4-1.8-0.6-2.2-0.6c0,0,0,0,0,0.1l0.3,0.6c0.2,0.4,0.4,0.8,0.6,1.2l0.1,0.3l0.2,0.3c0.1,0.2,0.2,0.4,0.3,0.6
			c0.1,0.2,0.2,0.4,0.3,0.6c0.1,0.2,0.2,0.4,0.3,0.6c0.2,0.4,0.5,0.8,0.7,1.2c0.5,0.8,1,1.5,1.6,2.2c0.3,0.4,0.6,0.7,0.8,1.1
			c0.3,0.3,0.6,0.7,0.9,1c0.3,0.3,0.6,0.7,0.9,1l0.5,0.5c0.1,0.1,0.2,0.2,0.2,0.2l0.3,0.2c1.3,1.2,2.8,2.3,4.4,3.2l0.3,0.2l0.3,0.2
			l0.6,0.3c0.2,0.1,0.4,0.2,0.6,0.3c0.2,0.1,0.4,0.2,0.6,0.3l0.6,0.3l0.3,0.1c0.1,0,0.2,0.1,0.3,0.1c0.4,0.2,0.8,0.3,1.3,0.5
			l0.6,0.2c0.2,0.1,0.4,0.1,0.7,0.2l0.7,0.2l0.7,0.2l0.7,0.2l0.7,0.1l0.7,0.1c0.2,0,0.5,0.1,0.7,0.1c1.8,0.3,3.6,0.5,5.5,0.7
			c-1.8,0.1-3.7,0-5.5-0.2c-0.2,0-0.5-0.1-0.7-0.1l-0.7-0.1c-0.2,0-0.5-0.1-0.7-0.1L29.3,77c-0.2,0-0.5-0.1-0.7-0.1l-0.7-0.2
			c-0.2-0.1-0.5-0.1-0.7-0.2l-0.7-0.2c-0.4-0.1-0.9-0.3-1.3-0.4c-0.1,0-0.2-0.1-0.3-0.1l-0.3-0.1L24,75.4c-0.2-0.1-0.4-0.2-0.6-0.3
			c-0.2-0.1-0.4-0.2-0.6-0.3l-0.6-0.3l-0.3-0.2l-0.3-0.2l-0.6-0.3c-0.2-0.1-0.4-0.2-0.6-0.4c-0.4-0.2-0.8-0.5-1.2-0.8
			c-0.8-0.5-1.5-1.1-2.2-1.8l-0.3-0.2c-0.1-0.1-0.2-0.2-0.3-0.2l-0.5-0.5c-0.3-0.3-0.7-0.7-1-1c-0.3-0.3-0.6-0.7-0.9-1.1
			c-0.3-0.4-0.6-0.7-0.9-1.1c-1.1-1.5-2.1-3.1-2.9-4.8c-0.1-0.2-0.2-0.4-0.3-0.6L9.8,61l-0.1-0.3c-0.2-0.4-0.4-0.9-0.5-1.3l-0.2-0.7
			c0,0,0-0.1,0-0.1c-0.2,0.5-0.9,2.1-0.9,3.6c0,1.8-0.1,4.4,5.1,11C18.2,79.8,27.6,82.1,33.5,82z"/>
		
			<linearGradient id="SVGID_14_" gradientUnits="userSpaceOnUse" x1="825.0452" y1="795.4901" x2="850.1118" y2="795.4901" gradientTransform="matrix(0.2214 0.9752 -0.9752 0.2214 613.5136 -924.8014)">
			<stop  offset="0" style="stop-color:#AB1B81"/>
			<stop  offset="0.295" style="stop-color:#B41A7A"/>
			<stop  offset="0.7839" style="stop-color:#CE1666"/>
			<stop  offset="0.9987" style="stop-color:#DB145C"/>
		</linearGradient>
		<path style="display:none;fill:url(#SVGID_14_);" d="M9.1,59.4c0.1,0.4,0.3,0.9,0.5,1.3L9.8,61l0.1,0.3c0.1,0.2,0.2,0.4,0.3,0.6
			c0.8,1.7,1.8,3.3,2.9,4.8c0.3,0.4,0.6,0.7,0.9,1.1c0.3,0.4,0.6,0.7,0.9,1.1c0.3,0.4,0.6,0.7,1,1l0.5,0.5c0.1,0.1,0.2,0.2,0.3,0.2
			l0.3,0.2c0.7,0.6,1.4,1.2,2.2,1.8c0.4,0.3,0.8,0.5,1.2,0.8c0.2,0.1,0.4,0.3,0.6,0.4l0.6,0.3l0.3,0.2l0.3,0.2l0.6,0.3
			c0.2,0.1,0.4,0.2,0.6,0.3c0.2,0.1,0.4,0.2,0.6,0.3l0.6,0.3l0.3,0.1c0.1,0,0.2,0.1,0.3,0.1c0.4,0.2,0.9,0.3,1.3,0.4l0.7,0.2
			c0.2,0.1,0.5,0.1,0.7,0.2l0.7,0.2c0.2,0.1,0.5,0.1,0.7,0.1l0.7,0.1c0.2,0,0.5,0.1,0.7,0.1l0.7,0.1c0.2,0,0.5,0.1,0.7,0.1
			c1.8,0.2,3.7,0.3,5.5,0.2c-1.8-0.1-3.7-0.3-5.5-0.7c-0.2,0-0.5-0.1-0.7-0.1l-0.7-0.1l-0.7-0.1l-0.7-0.2l-0.7-0.2l-0.7-0.2
			c-0.2-0.1-0.4-0.1-0.7-0.2l-0.6-0.2c-0.4-0.1-0.9-0.3-1.3-0.5c-0.1,0-0.2-0.1-0.3-0.1l-0.3-0.1l-0.6-0.3c-0.2-0.1-0.4-0.2-0.6-0.3
			c-0.2-0.1-0.4-0.2-0.6-0.3l-0.6-0.3l-0.3-0.2l-0.3-0.2c-1.6-0.9-3-2-4.4-3.2L17.2,70c-0.1-0.1-0.2-0.2-0.2-0.2l-0.5-0.5
			c-0.3-0.3-0.6-0.6-0.9-1c-0.3-0.3-0.6-0.7-0.9-1c-0.3-0.4-0.6-0.7-0.8-1.1c-0.5-0.7-1.1-1.5-1.6-2.2c-0.2-0.4-0.5-0.8-0.7-1.2
			c-0.1-0.2-0.2-0.4-0.3-0.6c-0.1-0.2-0.2-0.4-0.3-0.6c-0.1-0.2-0.2-0.4-0.3-0.6l-0.2-0.3l-0.1-0.3C10,60,9.8,59.6,9.7,59.2
			l-0.3-0.6c0,0,0,0,0-0.1c-0.3,0-0.4,0-0.4,0s0,0.1-0.1,0.2c0,0,0,0.1,0,0.1L9.1,59.4z"/>
	</g>
	
		<linearGradient id="SVGID_15_" gradientUnits="userSpaceOnUse" x1="819.657" y1="807.1137" x2="825.2906" y2="807.1137" gradientTransform="matrix(0.2214 0.9752 -0.9752 0.2214 613.5136 -924.8014)">
		<stop  offset="0" style="stop-color:#AB1B81"/>
		<stop  offset="0.295" style="stop-color:#B41A7A"/>
		<stop  offset="0.7839" style="stop-color:#CE1666"/>
		<stop  offset="0.9987" style="stop-color:#DB145C"/>
	</linearGradient>
	<path class="st23" d="M9.5,58.6c-0.1-0.2-0.2-0.4-0.2-0.7c-0.1-0.2-0.1-0.3-0.2-0.5c-0.3-0.9-0.8-2.4-1-4.2c0,0.1,0,0.1,0,0.2
		c-0.1,1.1,0.1,2.1,0.2,3.2l0.2,0.8c0,0.1,0.1,0.3,0.1,0.4l0.1,0.4c0.1,0.2,0.1,0.4,0.2,0.7C8.9,58.6,9.1,58.6,9.5,58.6z"/>
</g>
</svg>
